<?xml version="1.0" standalone="no"?>
<!DOCTYPE svg PUBLIC "-//W3C//DTD SVG 20010904//EN"
 "http://www.w3.org/TR/2001/REC-SVG-20010904/DTD/svg10.dtd">
<svg version="1.0" xmlns="http://www.w3.org/2000/svg"
 width="512.000000pt" height="512.000000pt" viewBox="0 0 512.000000 512.000000"
 preserveAspectRatio="xMidYMid meet">
<metadata>
Created by potrace 1.11, written by Peter Selinger 2001-2013
</metadata>
<g transform="translate(0.000000,512.000000) scale(0.100000,-0.100000)"
fill="#000000" stroke="none">
<path d="M800 4780 c-163 -30 -322 -136 -409 -275 -40 -63 -78 -156 -89 -215
-3 -19 -6 -825 -6 -1790 l-1 -1755 27 -73 c46 -126 132 -244 227 -311 62 -43
166 -88 236 -102 103 -19 3484 -20 3565 0 224 55 401 223 462 438 l22 78 0
1740 c0 1873 2 1785 -52 1905 -71 159 -201 278 -368 337 l-79 28 -1745 1
c-960 1 -1765 -2 -1790 -6z"/>
</g>
</svg>
